<svg id="Capa_1" enable-background="new 0 0 512.005 512.005" height="512" viewBox="0 0 512.005 512.005" width="512" xmlns="http://www.w3.org/2000/svg"><g><path d="m99.458 364.163c4.142 0 7.5-3.358 7.5-7.5v-17.999c0-19.702 11.735-37.372 29.976-45.052l44.654-19.408 66.077 57.72c2.639 2.305 5.948 3.458 9.258 3.458 3.308 0 6.616-1.151 9.254-3.454l43.568-38.027c3.121-2.724 3.442-7.461.719-10.582-2.724-3.121-7.462-3.441-10.582-.719l-42.958 37.494-60.11-52.507 14.625-6.356 39.636 34.604c1.413 1.233 3.173 1.85 4.933 1.85 1.759 0 3.519-.616 4.931-1.849l39.885-34.805 75.202 32.229c17.648 7.819 29.051 25.342 29.051 44.642v18.711c0 4.142 3.358 7.5 7.5 7.5s7.5-3.358 7.5-7.5v-18.711c0-25.229-14.906-48.134-38.059-58.392l-56.883-24.379c19.164-7.814 32.711-26.634 32.711-48.569v-105.687c0-26.945-10.494-52.277-29.551-71.331-19.065-19.051-44.403-29.544-71.345-29.544-55.628 0-100.886 45.252-100.886 100.875v105.686c0 21.742 13.306 40.432 32.24 48.368l-57.271 24.892c-23.738 9.994-39.076 33.091-39.076 58.843v17.999c.001 4.142 3.359 7.5 7.501 7.5zm156.549-83.933-35.687-31.156v-21.452c10.651 5.678 22.796 8.908 35.686 8.908 12.897 0 25.05-3.235 35.706-8.921v21.463zm50.706-36.262v-26.849c14.502-12.982 24.006-31.426 25.253-52.068h6.123c1.649 0 3.239-.242 4.756-.662v42.172c0 20.228-16.134 36.749-36.132 37.407zm25.424-93.917v-26.285h5.952c1.588 0 2.881 1.292 2.881 2.88v20.524c0 1.588-1.292 2.88-2.881 2.88h-5.952zm-75.187-135.051c22.938 0 44.509 8.934 60.74 25.153 16.222 16.219 25.155 37.784 25.155 60.722v8.553c-1.517-.42-3.107-.662-4.756-.662-15.404-.69-20.904 3.477-37.948 3.477-34.708 0-65.219-22.159-75.924-55.141-1.279-3.939-5.509-6.096-9.449-4.818-3.94 1.279-6.097 5.509-4.818 9.449 12.719 39.184 48.964 65.51 90.192 65.51 5.717 0 11.397-.513 16.979-1.522v34.693c0 33.699-27.416 61.115-61.113 61.115-33.703 0-61.123-27.416-61.123-61.115l.012-38.399c3.98-1.447 8.677-3.957 12.874-8.313 2.153-2.235 3.99-4.767 5.458-7.524 1.947-3.656.561-8.198-3.095-10.145-3.654-1.944-8.197-.561-10.145 3.095-.815 1.531-1.831 2.932-3.02 4.167-3.529 3.662-7.741 4.99-10.243 5.472h-12.78c-.983 0-1.94.101-2.88.254v-8.145c-.002-47.353 38.526-85.876 85.884-85.876zm-85.886 111.642c.003-1.586 1.294-2.876 2.88-2.876h5.939v26.285h-5.939c-1.587 0-2.878-1.289-2.88-2.876zm0 79.92v-41.764c.94.153 1.898.254 2.88.254h6.094c1.248 20.654 10.764 39.107 25.282 52.09v26.711c-19.159-1.627-34.256-17.725-34.256-37.291z"/><path d="m318.059 420.681-36.559-5.312-16.349-33.124c-1.719-3.483-5.201-5.647-9.085-5.647s-7.366 2.165-9.084 5.647l-16.349 33.124-36.56 5.312c-3.844.559-6.978 3.202-8.178 6.896s-.217 7.673 2.564 10.384l26.454 25.783-6.245 36.406c-.657 3.829.888 7.625 4.03 9.909 1.776 1.291 3.853 1.946 5.945 1.946 1.61 0 3.229-.388 4.724-1.174l32.699-17.189 32.7 17.189c3.438 1.807 7.526 1.511 10.669-.771 3.143-2.283 4.687-6.08 4.03-9.909l-6.245-36.407 26.453-25.782c2.782-2.711 3.765-6.689 2.566-10.384-1.201-3.695-4.335-6.338-8.18-6.897zm-33.143 34.109c-2.388 2.328-3.477 5.681-2.913 8.967l5.01 29.207-26.229-13.788c-1.477-.777-3.098-1.167-4.719-1.167-1.619 0-3.238.389-4.713 1.165l-26.232 13.79 5.01-29.206c.564-3.287-.525-6.639-2.914-8.968l-21.221-20.683 29.328-4.261c3.3-.479 6.151-2.551 7.628-5.542l13.116-26.574 13.117 26.575c1.476 2.99 4.328 5.061 7.628 5.541l29.327 4.261z"/><path d="m149.792 420.681-36.559-5.312-16.349-33.124c-1.719-3.483-5.201-5.647-9.085-5.647s-7.366 2.165-9.084 5.647l-16.349 33.124-36.561 5.312c-3.844.56-6.977 3.202-8.177 6.896s-.217 7.673 2.564 10.384l26.454 25.783-6.246 36.406c-.657 3.829.888 7.625 4.03 9.909 3.143 2.284 7.23 2.579 10.669.771l32.699-17.189 32.7 17.189c1.496.786 3.114 1.174 4.724 1.174 2.092 0 4.17-.656 5.945-1.946 3.143-2.283 4.687-6.08 4.03-9.909l-6.245-36.406 26.454-25.783c2.782-2.711 3.764-6.69 2.564-10.384s-4.333-6.336-8.178-6.895zm-33.143 34.109c-2.387 2.327-3.476 5.678-2.914 8.967l5.01 29.206-26.23-13.788c-1.477-.777-3.097-1.166-4.717-1.166-1.619 0-3.238.388-4.713 1.164l-26.232 13.79 5.01-29.206c.564-3.287-.525-6.639-2.914-8.968l-21.221-20.683 29.328-4.261c3.3-.479 6.151-2.551 7.628-5.542l13.116-26.574 13.115 26.571c1.475 2.992 4.327 5.064 7.629 5.544l29.327 4.261z"/><path d="m494.379 427.577c-1.2-3.694-4.333-6.336-8.179-6.896l-36.559-5.312-16.349-33.123c-1.719-3.484-5.2-5.648-9.084-5.648 0 0 0 0-.001 0-3.884 0-7.365 2.164-9.085 5.647l-16.349 33.124-36.56 5.312c-3.844.559-6.978 3.202-8.178 6.896s-.217 7.673 2.564 10.384l26.454 25.783-6.245 36.406c-.657 3.829.888 7.625 4.03 9.909 3.143 2.284 7.23 2.579 10.669.771l32.7-17.189 32.699 17.189c1.496.786 3.114 1.174 4.724 1.174 2.092 0 4.17-.656 5.945-1.946 3.143-2.283 4.687-6.08 4.03-9.909l-6.245-36.406 26.454-25.783c2.782-2.71 3.765-6.689 2.565-10.383zm-41.322 27.213c-2.388 2.329-3.478 5.681-2.914 8.967l5.01 29.206-26.23-13.788c-1.477-.777-3.097-1.166-4.717-1.166-1.619 0-3.238.388-4.713 1.164l-26.232 13.79 5.01-29.209c.562-3.286-.527-6.637-2.915-8.964l-21.221-20.683 29.328-4.261c3.302-.479 6.154-2.552 7.628-5.542l13.116-26.574 13.117 26.575c1.476 2.99 4.328 5.061 7.628 5.541l29.328 4.261z"/></g></svg>